<svg width="80" height="22" viewBox="0 0 80 22" fill="none" xmlns="http://www.w3.org/2000/svg">
<path opacity="0.993" fill-rule="evenodd" clip-rule="evenodd" d="M5.2818 0.960453C6.43276 2.12739 7.58373 3.29437 8.73469 4.46131C8.3612 4.62407 7.99352 4.79993 7.63168 4.98883C6.32088 3.66201 5.01002 2.33523 3.69922 1.00841C4.22286 0.961556 4.75039 0.945586 5.2818 0.960453Z" fill="#F08D31"/>
<path opacity="0.993" fill-rule="evenodd" clip-rule="evenodd" d="M5.27734 0.960449C5.85283 0.960449 6.42831 0.960449 7.00379 0.960449C7.96293 1.93556 8.92207 2.91071 9.88121 3.88582C9.49755 4.07765 9.1139 4.26948 8.73024 4.4613C7.57927 3.29437 6.42831 2.12738 5.27734 0.960449Z" fill="#F19234"/>
<path opacity="0.99" fill-rule="evenodd" clip-rule="evenodd" d="M7.00391 0.960449C7.6753 0.960449 8.3467 0.960449 9.0181 0.960449C9.75342 1.71179 10.4888 2.46308 11.2241 3.21442C10.7843 3.44678 10.3367 3.67054 9.88132 3.88582C8.92218 2.91071 7.96304 1.93556 7.00391 0.960449Z" fill="#F29938"/>
<path opacity="0.988" fill-rule="evenodd" clip-rule="evenodd" d="M9.01953 0.960449C9.61098 0.960449 10.2025 0.960449 10.7939 0.960449C11.3374 1.51996 11.881 2.07943 12.4245 2.63894C12.0309 2.84372 11.6313 3.03554 11.2255 3.21442C10.4902 2.46308 9.75485 1.71179 9.01953 0.960449Z" fill="#F29F3B"/>
<path opacity="0.982" fill-rule="evenodd" clip-rule="evenodd" d="M10.7969 0.960449C11.8999 0.960449 13.0029 0.960449 14.1059 0.960449C14.3137 1.18426 14.5215 1.40803 14.7293 1.63185C14.5663 1.65659 14.4065 1.69659 14.2498 1.75174C13.6469 2.06116 13.0395 2.35691 12.4274 2.63894C11.8839 2.07943 11.3404 1.51996 10.7969 0.960449Z" fill="#F3A73F"/>
<path opacity="0.992" fill-rule="evenodd" clip-rule="evenodd" d="M14.1055 0.960449C14.7928 0.960449 15.4802 0.960449 16.1676 0.960449C17.7662 2.59098 19.3807 4.20555 21.0113 5.8041C21.0113 6.66732 21.0113 7.53054 21.0113 8.39377C20.5823 7.94058 20.1028 7.55692 19.5726 7.2428C19.3899 6.5762 19.222 5.90481 19.069 5.22861C18.7946 4.43464 18.2591 3.90711 17.4625 3.64604C17.2806 3.18646 17.0489 2.75485 16.7671 2.3512C16.2026 1.79265 15.5232 1.55286 14.7289 1.63185C14.5211 1.40803 14.3133 1.18426 14.1055 0.960449Z" fill="#F4B245"/>
<path opacity="0.989" fill-rule="evenodd" clip-rule="evenodd" d="M16.168 0.960401C17.9406 0.81207 19.3394 1.45148 20.3642 2.87868C20.9049 3.77873 21.1207 4.75384 21.0116 5.80405C19.3811 4.2055 17.7665 2.59094 16.168 0.960401Z" fill="#F6B849"/>
<path opacity="0.996" fill-rule="evenodd" clip-rule="evenodd" d="M3.69826 1.00879C5.00907 2.33561 6.31992 3.66239 7.63073 4.98921C7.23691 5.19413 6.83728 5.38596 6.43181 5.56469C6.43809 5.52921 6.43008 5.49708 6.40783 5.46878C5.04739 4.11635 3.69658 2.75754 2.35547 1.39244C2.77725 1.17731 3.22483 1.04941 3.69826 1.00879Z" fill="#EF862E"/>
<path opacity="0.996" fill-rule="evenodd" clip-rule="evenodd" d="M2.35409 1.39209C3.69521 2.75718 5.04601 4.11599 6.40645 5.46843C6.4287 5.49672 6.43671 5.52885 6.43043 5.56434C5.98285 5.7883 5.53522 6.01178 5.08763 6.23574C5.09392 6.20025 5.08591 6.16812 5.06366 6.13982C3.76714 4.85132 2.48031 3.55648 1.20312 2.25531C1.51782 1.87684 1.90147 1.5891 2.35409 1.39209Z" fill="#EE7F2A"/>
<path fill-rule="evenodd" clip-rule="evenodd" d="M14.7252 1.63187C15.5195 1.55288 16.1989 1.79267 16.7634 2.35122C17.0452 2.75487 17.277 3.18648 17.4588 3.64606C17.1242 3.60016 16.7885 3.5922 16.4517 3.62208C12.4305 4.63133 8.41812 5.64634 4.41448 6.66734C4.35056 6.66734 4.28658 6.66734 4.22266 6.66734C4.49846 6.50573 4.7862 6.36185 5.08588 6.23573C5.53346 6.01177 5.98109 5.78829 6.42867 5.56433C6.83415 5.3856 7.23377 5.19377 7.6276 4.98885C7.98943 4.79995 8.35712 4.62409 8.7306 4.46132C9.11426 4.2695 9.49792 4.07767 9.88157 3.88584C10.3369 3.67056 10.7845 3.44679 11.2244 3.21444C11.6301 3.03556 12.0297 2.84374 12.4233 2.63896C13.0354 2.35693 13.6428 2.06118 14.2456 1.75176C14.4024 1.69661 14.5622 1.65661 14.7252 1.63187Z" fill="#8AC33E"/>
<path opacity="0.995" fill-rule="evenodd" clip-rule="evenodd" d="M1.2009 2.25537C2.47809 3.55654 3.76492 4.85137 5.06143 6.13988C5.08369 6.16817 5.0917 6.20031 5.08541 6.23579C4.78573 6.36192 4.49799 6.50579 4.22219 6.66741C4.07832 6.66741 3.93445 6.66741 3.79058 6.66741C2.68757 5.53227 1.56859 4.41343 0.433594 3.31042C0.619571 2.90595 0.875325 2.55424 1.2009 2.25537Z" fill="#ED7927"/>
<path opacity="0.994" fill-rule="evenodd" clip-rule="evenodd" d="M0.434436 3.31055C1.56943 4.41356 2.68841 5.53239 3.79142 6.66753C3.5455 6.64883 3.30571 6.67281 3.07207 6.73947C2.85684 6.88238 2.77689 7.08188 2.83228 7.33893C2.79684 7.34516 2.76485 7.33701 2.73637 7.31495C1.84749 6.41815 0.952323 5.53095 0.0507812 4.65334C0.0914967 4.17967 0.219398 3.73209 0.434436 3.31055Z" fill="#ED7324"/>
<path fill-rule="evenodd" clip-rule="evenodd" d="M17.4622 3.64616C18.2589 3.90724 18.7943 4.43476 19.0688 5.22874C19.2218 5.90493 19.3897 6.57632 19.5723 7.24293C18.9569 6.92305 18.3015 6.73938 17.6061 6.69142C13.2101 6.66744 8.81403 6.65929 4.41797 6.66744C8.4216 5.64644 12.434 4.63143 16.4552 3.62218C16.792 3.5923 17.1277 3.60026 17.4622 3.64616Z" fill="#219245"/>
<path opacity="0.964" fill-rule="evenodd" clip-rule="evenodd" d="M69.1584 4.22179C70.3367 4.19258 70.8081 4.7521 70.5731 5.90028C70.1314 6.62443 69.532 6.79228 68.7747 6.40383C68.0803 5.74538 68.0803 5.08976 68.7747 4.4376C68.8994 4.35151 69.0275 4.27958 69.1584 4.22179Z" fill="#00457A"/>
<path opacity="0.979" fill-rule="evenodd" clip-rule="evenodd" d="M31.0316 4.5575C31.7308 4.54196 32.4262 4.55798 33.1178 4.60545C34.5253 8.37247 35.9079 12.1448 37.266 15.9233C36.4987 15.9233 35.7314 15.9233 34.9641 15.9233C34.7416 15.1526 34.486 14.393 34.1968 13.6453C32.7582 13.6214 31.3195 13.6132 29.8807 13.6214C29.6583 14.392 29.4026 15.1517 29.1133 15.8993C28.3622 15.9233 27.6109 15.9314 26.8594 15.9233C26.9321 15.6327 27.0201 15.3449 27.1231 15.0601C28.4501 11.5664 29.753 8.06554 31.0316 4.5575ZM32.0387 7.62674C32.5103 8.91342 32.9739 10.2083 33.4295 11.5112C32.5183 11.575 31.6071 11.575 30.6959 11.5112C31.163 10.2217 31.6106 8.92685 32.0387 7.62674Z" fill="#00457A"/>
<path opacity="0.969" fill-rule="evenodd" clip-rule="evenodd" d="M56.7843 4.55664C57.5037 4.55664 58.223 4.55664 58.9424 4.55664C58.9424 8.34524 58.9424 12.1338 58.9424 15.9224C58.2273 15.9378 57.5161 15.9219 56.8083 15.8745C56.7843 12.1017 56.7762 8.32941 56.7843 4.55664Z" fill="#00457A"/>
<path opacity="0.997" fill-rule="evenodd" clip-rule="evenodd" d="M0.0527347 4.65332C0.954277 5.53093 1.84944 6.41813 2.73832 7.31493C2.76681 7.33699 2.79879 7.34514 2.83424 7.33891C2.89538 7.54368 3.02328 7.68755 3.21789 7.77052C7.91767 12.4861 12.6174 17.2022 17.3172 21.9178C16.8096 21.9648 16.298 21.9806 15.7826 21.9658C10.5393 16.6905 5.28004 11.4311 0.00477783 6.18794C-0.0089858 5.67384 0.00698384 5.16238 0.0527347 4.65332Z" fill="#EC6D20"/>
<path opacity="0.997" fill-rule="evenodd" clip-rule="evenodd" d="M0.00390625 6.1875C5.27917 11.4306 10.5385 16.6901 15.7817 21.9653C15.0944 21.9653 14.4069 21.9653 13.7196 21.9653C9.16367 17.3773 4.5918 12.8056 0.00390625 8.24965C0.00390625 7.56242 0.00390625 6.87472 0.00390625 6.1875Z" fill="#EB671D"/>
<path fill-rule="evenodd" clip-rule="evenodd" d="M3.79255 6.66728C3.93642 6.66728 4.08029 6.66728 4.22416 6.66728C4.28809 6.66728 4.35206 6.66728 4.41599 6.66728C8.81205 6.65913 13.2081 6.66728 17.6041 6.69126C18.2995 6.73921 18.9549 6.92289 19.5704 7.24276C20.1006 7.55688 20.5801 7.94054 21.0091 8.39373C21.0091 9.16104 21.0091 9.92835 21.0091 10.6957C20.4866 9.03827 19.3677 8.0633 17.6521 7.77029C17.0446 7.77029 16.4372 7.77029 15.8297 7.77029C15.542 7.77029 15.2542 7.77029 14.9665 7.77029C14.5829 7.77029 14.1992 7.77029 13.8155 7.77029C13.2401 7.77029 12.6646 7.77029 12.0891 7.77029C11.5456 7.77029 11.0021 7.77029 10.4586 7.77029C9.88307 7.77029 9.30759 7.77029 8.73211 7.77029C8.54028 7.77029 8.34845 7.77029 8.15663 7.77029C7.67706 7.77029 7.19749 7.77029 6.71792 7.77029C6.12647 7.77029 5.53497 7.77029 4.94351 7.77029C4.36803 7.77029 3.79255 7.77029 3.21706 7.77029C3.02246 7.68732 2.89455 7.54345 2.83341 7.33868C2.77802 7.08163 2.85796 6.88213 3.07319 6.73921C3.30684 6.67255 3.54662 6.64858 3.79255 6.66728Z" fill="#FDFBF9"/>
<path opacity="0.976" fill-rule="evenodd" clip-rule="evenodd" d="M41.9186 7.53006C43.9894 7.4984 45.372 8.45754 46.0669 10.4075C46.5632 12.3066 46.0918 13.9131 44.6521 15.2271C43.7755 15.911 42.7842 16.1508 41.6788 15.9465C41.1618 15.828 40.6904 15.6122 40.2641 15.2991C40.2401 16.4659 40.2319 17.6327 40.2401 18.7999C39.5207 18.7999 38.8014 18.7999 38.082 18.7999C38.082 15.0751 38.082 11.3508 38.082 7.62597C38.6417 7.62597 39.2009 7.62597 39.7605 7.62597C39.8162 7.8811 39.9121 8.12088 40.0483 8.34532C40.6108 7.9281 41.2342 7.65618 41.9186 7.53006ZM41.8706 9.54425C43.2964 9.60323 44.0474 10.3466 44.1246 11.7742C44.0891 12.8864 43.5458 13.6057 42.4941 13.9323C41.2784 14.056 40.4871 13.5367 40.1202 12.3737C40.0881 11.99 40.0881 11.6064 40.1202 11.2227C40.3394 10.2761 40.9225 9.71689 41.8706 9.54425Z" fill="#00457A"/>
<path opacity="0.977" fill-rule="evenodd" clip-rule="evenodd" d="M50.8384 7.5308C53.1302 7.41762 54.6088 8.45637 55.2744 10.648C55.3559 11.3021 55.3636 11.9572 55.2984 12.6142C53.3959 12.6142 51.494 12.6142 49.5915 12.6142C49.7761 13.3978 50.2715 13.8376 51.0782 13.933C51.797 14.0294 52.4205 13.8376 52.9485 13.3576C53.6678 13.3336 54.3872 13.3254 55.1066 13.3336C54.7334 14.4342 54.0141 15.2255 52.9485 15.7075C50.7142 16.423 48.9796 15.7914 47.7452 13.8132C46.8278 11.8134 47.1558 10.0471 48.7283 8.51392C49.3565 8.01564 50.06 7.6881 50.8384 7.5308ZM51.222 9.54499C52.1692 9.51861 52.8324 9.93392 53.2123 10.7919C53.2593 10.8993 53.2832 11.011 53.2842 11.1276C52.0215 11.1276 50.7583 11.1276 49.4956 11.1276C49.7119 10.2049 50.2874 9.67735 51.222 9.54499Z" fill="#00457A"/>
<path opacity="0.974" fill-rule="evenodd" clip-rule="evenodd" d="M63.0204 7.53041C63.9805 7.41723 64.8759 7.6009 65.706 8.08191C66.3683 8.59889 66.7361 9.27844 66.809 10.1201C66.1376 10.1282 65.4662 10.1201 64.7948 10.0961C64.5891 9.58488 64.2055 9.32112 63.6439 9.30481C62.9178 9.33311 62.6541 9.68511 62.8526 10.3599C62.9202 10.4217 62.9921 10.4774 63.0684 10.5277C63.7494 10.7545 64.4371 10.9627 65.1305 11.1512C66.8858 11.8926 67.3414 13.1155 66.4973 14.8199C66.012 15.4318 65.3804 15.8073 64.603 15.9468C64.0275 15.979 63.4521 15.979 62.8766 15.9468C61.3702 15.6634 60.5387 14.7599 60.3828 13.2373C61.0542 13.2291 61.7256 13.2373 62.397 13.2613C62.7936 14.2142 63.465 14.4702 64.4112 14.0286C64.6188 13.8607 64.7469 13.6449 64.7948 13.3811C64.7622 13.244 64.6985 13.1241 64.603 13.0215C64.3906 12.8992 64.1666 12.8033 63.9316 12.7337C63.1437 12.5831 62.3922 12.3271 61.6776 11.9664C60.7195 11.3847 60.3761 10.5455 60.6466 9.44868C60.8422 8.77345 61.2499 8.2699 61.8695 7.93804C62.2435 7.75772 62.6272 7.62152 63.0204 7.53041Z" fill="#00457A"/>
<path opacity="0.982" fill-rule="evenodd" clip-rule="evenodd" d="M76.1586 7.53032C78.3445 7.39076 79.6153 8.39786 79.9712 10.5516C79.9952 12.3418 80.0033 14.1325 79.9952 15.9228C79.3401 15.964 78.6845 15.9717 78.0289 15.9468C77.968 15.9319 77.9124 15.9079 77.8611 15.8748C77.8453 14.2443 77.8289 12.6137 77.8131 10.9832C77.6323 10.0994 77.0885 9.6198 76.1826 9.54451C75.1673 9.64857 74.624 10.2078 74.5521 11.223C74.5343 12.7917 74.5262 14.3579 74.5281 15.9228C73.8245 15.9228 73.1215 15.9228 72.418 15.9228C72.418 13.1571 72.418 10.3919 72.418 7.62623C72.946 7.61808 73.4735 7.62623 74.0005 7.65021C74.1027 7.89479 74.2226 8.12642 74.3602 8.34558C74.9007 7.93555 75.5002 7.66364 76.1586 7.53032Z" fill="#00457A"/>
<path opacity="0.993" fill-rule="evenodd" clip-rule="evenodd" d="M68.3945 7.62646C69.0981 7.62646 69.8011 7.62646 70.5046 7.62646C70.5046 10.3921 70.5046 13.1573 70.5046 15.923C69.8011 15.923 69.0981 15.923 68.3945 15.923C68.3945 13.1573 68.3945 10.3921 68.3945 7.62646Z" fill="#00457A"/>
<path opacity="0.999" fill-rule="evenodd" clip-rule="evenodd" d="M3.21484 7.77051C3.79033 7.77051 4.36581 7.77051 4.94129 7.77051C9.51317 12.3585 14.0851 16.9461 18.657 21.5341C18.2395 21.7504 17.792 21.8785 17.3142 21.9178C12.6144 17.2022 7.91462 12.4861 3.21484 7.77051Z" fill="#ED7323"/>
<path opacity="0.999" fill-rule="evenodd" clip-rule="evenodd" d="M4.94141 7.77051C5.53286 7.77051 6.12436 7.77051 6.71581 7.77051C11.0479 12.1188 15.38 16.4665 19.7121 20.8148C19.4107 21.1255 19.0591 21.3653 18.6571 21.5341C14.0852 16.9461 9.51328 12.3585 4.94141 7.77051Z" fill="#EE7927"/>
<path opacity="0.998" fill-rule="evenodd" clip-rule="evenodd" d="M6.71875 7.77051C7.19832 7.77051 7.67789 7.77051 8.15746 7.77051C12.2178 11.8627 16.2942 15.939 20.3865 19.9995C20.1975 20.3002 19.9737 20.5721 19.7151 20.8148C15.383 16.4665 11.0508 12.1188 6.71875 7.77051Z" fill="#EE7E2A"/>
<path opacity="0.998" fill-rule="evenodd" clip-rule="evenodd" d="M8.15625 7.77051C8.34808 7.77051 8.53991 7.77051 8.73173 7.77051C11.1639 10.2508 13.6257 12.6966 16.1171 15.1079C16.2759 15.5544 16.5796 15.858 17.0283 16.0191C18.1768 17.2477 19.3597 18.4467 20.5771 19.6159C20.534 19.7545 20.47 19.8825 20.3853 19.9995C16.293 15.939 12.2166 11.8627 8.15625 7.77051Z" fill="#EF822C"/>
<path fill-rule="evenodd" clip-rule="evenodd" d="M8.73047 7.77051C9.30595 7.77051 9.88143 7.77051 10.4569 7.77051C12.3912 9.73674 14.3414 11.6871 16.3077 13.6212C16.0071 14.085 15.9431 14.5804 16.1158 15.1079C13.6244 12.6966 11.1627 10.2508 8.73047 7.77051Z" fill="#EF862E"/>
<path fill-rule="evenodd" clip-rule="evenodd" d="M10.457 7.77051C11.0005 7.77051 11.5441 7.77051 12.0876 7.77051C13.83 9.52909 15.5725 11.2872 17.3149 13.0458C16.9096 13.1153 16.5739 13.3071 16.3078 13.6213C14.3415 11.6871 12.3913 9.73674 10.457 7.77051Z" fill="#F08D31"/>
<path opacity="0.998" fill-rule="evenodd" clip-rule="evenodd" d="M12.0898 7.77051C12.6653 7.77051 13.2408 7.77051 13.8163 7.77051C16.1982 10.1842 18.596 12.582 21.0098 14.964C21.0098 15.5395 21.0098 16.115 21.0098 16.6905C20.3704 16.0671 19.731 15.4436 19.0916 14.8202C19.1561 14.0135 18.8204 13.4462 18.0845 13.1177C17.8325 13.0568 17.5767 13.0328 17.3171 13.0458C15.5747 11.2872 13.8323 9.52909 12.0898 7.77051Z" fill="#F19234"/>
<path opacity="0.998" fill-rule="evenodd" clip-rule="evenodd" d="M13.8164 7.77051C14.2001 7.77051 14.5837 7.77051 14.9674 7.77051C16.9656 9.80052 18.9798 11.8147 21.0099 13.8131C21.0099 14.1967 21.0099 14.5804 21.0099 14.964C18.5961 12.582 16.1983 10.1842 13.8164 7.77051Z" fill="#F29737"/>
<path opacity="0.998" fill-rule="evenodd" clip-rule="evenodd" d="M14.9648 7.77051C15.2526 7.77051 15.5403 7.77051 15.8281 7.77051C17.5385 9.51278 19.265 11.2392 21.0074 12.9499C21.0074 13.2376 21.0074 13.5253 21.0074 13.8131C18.9773 11.8147 16.9631 9.80052 14.9648 7.77051Z" fill="#F29A39"/>
<path opacity="0.997" fill-rule="evenodd" clip-rule="evenodd" d="M15.832 7.77051C16.4395 7.77051 17.0469 7.77051 17.6544 7.77051C18.739 8.9349 19.858 10.07 21.0114 11.1754C21.0114 11.7668 21.0114 12.3585 21.0114 12.9499C19.269 11.2392 17.5425 9.51278 15.832 7.77051Z" fill="#F39F3B"/>
<path fill-rule="evenodd" clip-rule="evenodd" d="M17.6523 7.77051C19.3679 8.06352 20.4869 9.03849 21.0093 10.6959C21.0093 10.8556 21.0093 11.0158 21.0093 11.1754C19.8559 10.07 18.7369 8.9349 17.6523 7.77051Z" fill="#F4A540"/>
<path opacity="0.996" fill-rule="evenodd" clip-rule="evenodd" d="M0.00390625 8.25C4.5918 12.8059 9.16367 17.3776 13.7196 21.9657C13.1441 21.9657 12.5686 21.9657 11.9931 21.9657C8.01271 17.9531 4.01632 13.9569 0.00390625 9.97645C0.00390625 9.40097 0.00390625 8.82548 0.00390625 8.25Z" fill="#EA6019"/>
<path opacity="0.996" fill-rule="evenodd" clip-rule="evenodd" d="M0.00390625 9.97656C4.01632 13.957 8.01271 17.9532 11.9931 21.9658C11.4176 21.9658 10.8422 21.9658 10.2667 21.9658C6.86174 18.5287 3.44083 15.108 0.00390625 11.703C0.00390625 11.1275 0.00390625 10.552 0.00390625 9.97656Z" fill="#EA5A16"/>
<path opacity="0.995" fill-rule="evenodd" clip-rule="evenodd" d="M0.00390625 11.7026C3.44083 15.1076 6.86174 18.5283 10.2667 21.9654C9.72319 21.9654 9.17964 21.9654 8.63615 21.9654C7.38927 20.7027 6.14239 19.4395 4.89551 18.1768C5.12091 17.2191 4.75327 16.8518 3.7925 17.0738C2.52965 15.8269 1.26676 14.5801 0.00390625 13.3332C0.00390625 12.7898 0.00390625 12.246 0.00390625 11.7026Z" fill="#E95413"/>
<path fill-rule="evenodd" clip-rule="evenodd" d="M17.3169 13.0454C17.5765 13.0324 17.8323 13.0564 18.0842 13.1173C18.8201 13.4458 19.1558 14.0132 19.0913 14.8198C18.992 15.227 18.7842 15.5627 18.4679 15.8269C18.0181 16.1233 17.5386 16.1875 17.0292 16.0187C16.5805 15.8576 16.2768 15.554 16.118 15.1075C15.9452 14.58 16.0092 14.0846 16.3098 13.6209C16.576 13.3068 16.9117 13.1149 17.3169 13.0454Z" fill="#FEFEFD"/>
<path opacity="0.992" fill-rule="evenodd" clip-rule="evenodd" d="M0.00390625 13.3335C1.26676 14.5804 2.52965 15.8273 3.7925 17.0741C3.50044 17.3763 3.42851 17.7278 3.5767 18.1292C3.81245 18.4476 4.12417 18.5512 4.51186 18.4409C4.66038 18.38 4.78828 18.2918 4.89551 18.1771C6.14239 19.4398 7.38927 20.703 8.63615 21.9657C7.96475 21.9657 7.29336 21.9657 6.62196 21.9657C6.07592 21.3716 5.50044 20.8124 4.89551 20.2872C5.29221 19.8494 5.27624 19.4259 4.84755 19.0164C4.48217 18.8322 4.14647 18.872 3.84046 19.1363C3.69529 19.0231 3.56739 18.8951 3.4568 18.7526C3.37345 18.3977 3.14964 18.1896 2.78541 18.1292C2.70201 17.9978 2.59008 17.9019 2.44971 17.8414C3.06749 17.5527 3.18738 17.1211 2.80939 16.5466C2.45594 16.2402 2.09627 16.2325 1.73035 16.5226C1.64782 16.6157 1.58389 16.7197 1.53853 16.8343C1.02697 16.339 0.515463 15.8431 0.00390625 15.3477C0.00390625 14.6763 0.00390625 14.0049 0.00390625 13.3335Z" fill="#E84E10"/>
<path opacity="0.993" fill-rule="evenodd" clip-rule="evenodd" d="M19.0922 14.8198C19.7316 15.4433 20.3711 16.0667 21.0105 16.6901C21.0262 17.2263 21.0102 17.7538 20.9625 18.2727C20.1313 17.4575 19.3 16.6422 18.4688 15.8269C18.7851 15.5627 18.9929 15.227 19.0922 14.8198Z" fill="#F08C31"/>
<path opacity="0.994" fill-rule="evenodd" clip-rule="evenodd" d="M18.47 15.8271C19.3012 16.6424 20.1325 17.4577 20.9637 18.273C20.9393 18.7549 20.8115 19.2024 20.5801 19.6157C19.3627 18.4466 18.1798 17.2476 17.0312 16.019C17.5406 16.1878 18.0202 16.1235 18.47 15.8271Z" fill="#EF862E"/>
<path fill-rule="evenodd" clip-rule="evenodd" d="M2.45087 17.8412C1.73862 17.87 1.4349 17.5343 1.53969 16.8342C1.58506 16.7195 1.64898 16.6155 1.73152 16.5224C2.09743 16.2323 2.45711 16.24 2.81055 16.5464C3.18854 17.1209 3.06865 17.5525 2.45087 17.8412Z" fill="#D64411"/>
<path fill-rule="evenodd" clip-rule="evenodd" d="M4.89754 18.177C4.79031 18.2916 4.66241 18.3798 4.51389 18.4407C4.1262 18.551 3.81448 18.4474 3.57873 18.129C3.43054 17.7276 3.50247 17.3761 3.79453 17.074C4.7553 16.8519 5.12294 17.2193 4.89754 18.177Z" fill="#D64411"/>
<path opacity="0.987" fill-rule="evenodd" clip-rule="evenodd" d="M0.00300405 15.3472C0.51456 15.8426 1.02607 16.3384 1.53762 16.8338C1.43284 17.534 1.73655 17.8697 2.44881 17.8409C2.58918 17.9014 2.70111 17.9973 2.7845 18.1287C2.1709 18.1905 1.90713 18.5262 1.99322 19.1358C2.26547 19.6892 2.6731 19.8091 3.21612 19.4954C3.41552 19.2887 3.49542 19.0413 3.4559 18.7521C3.56649 18.8945 3.69439 19.0226 3.83956 19.1358C3.53541 19.6695 3.6473 20.0935 4.17525 20.4066C4.43154 20.4555 4.67132 20.4157 4.89461 20.2867C5.49954 20.8119 6.07502 21.371 6.62106 21.9652C5.54836 21.9854 4.47729 21.9614 3.40794 21.8933C1.46003 21.4003 0.333043 20.1611 0.0269825 18.1766C0.00300405 17.2338 -0.00500475 16.2905 0.00300405 15.3472Z" fill="#E64309"/>
<path fill-rule="evenodd" clip-rule="evenodd" d="M2.78764 18.1289C3.15188 18.1893 3.37569 18.3975 3.45904 18.7523C3.49856 19.0415 3.41866 19.289 3.21926 19.4957C2.67624 19.8093 2.26861 19.6894 1.99635 19.136C1.91027 18.5265 2.17404 18.1908 2.78764 18.1289Z" fill="#D64411"/>
<path fill-rule="evenodd" clip-rule="evenodd" d="M4.89759 20.2877C4.6743 20.4167 4.43452 20.4565 4.17824 20.4076C3.65028 20.0944 3.5384 19.6705 3.84254 19.1367C4.14855 18.8725 4.48425 18.8327 4.84964 19.0169C5.27832 19.4264 5.29429 19.8499 4.89759 20.2877Z" fill="#D64411"/>
</svg>
