<svg width="51" height="50" viewBox="0 0 51 50" fill="none" xmlns="http://www.w3.org/2000/svg">
<path d="M33.8339 18.7501V12.5001C33.8339 7.89771 30.103 4.16675 25.5006 4.16675C20.8982 4.16675 17.1673 7.89771 17.1673 12.5001V18.7501M7.98395 21.5667L6.73395 34.9C6.37854 38.6911 6.20083 40.5866 6.82988 42.0507C7.38248 43.3368 8.35085 44.4002 9.57981 45.0705C10.9788 45.8334 12.8826 45.8334 16.6903 45.8334H34.3109C38.1186 45.8334 40.0224 45.8334 41.4214 45.0705C42.6504 44.4002 43.6187 43.3368 44.1713 42.0507C44.8004 40.5866 44.6227 38.6911 44.2673 34.9L43.0173 21.5667C42.7171 18.3654 42.5671 16.7647 41.8471 15.5546C41.2131 14.4888 40.2763 13.6357 39.156 13.1039C37.8839 12.5001 36.2763 12.5001 33.0609 12.5001L17.9403 12.5001C14.725 12.5001 13.1173 12.5001 11.8452 13.1039C10.7249 13.6357 9.78812 14.4888 9.15407 15.5546C8.43413 16.7647 8.28407 18.3654 7.98395 21.5667Z" stroke="#898E96" stroke-width="2" stroke-linecap="round" stroke-linejoin="round"/>
</svg>
