<svg width="29" height="28" viewBox="0 0 29 28" fill="none" xmlns="http://www.w3.org/2000/svg">
<path fill-rule="evenodd" clip-rule="evenodd" d="M10.1242 2.45412C8.17496 2.23626 6.15722 2.23626 4.20801 2.45412C3.73438 2.50705 3.36086 2.88209 3.30759 3.33758C3.07481 5.32776 3.07481 7.33829 3.30759 9.32849C3.36086 9.78397 3.73438 10.159 4.20801 10.212C6.15722 10.4298 8.17496 10.4298 10.1242 10.212C10.5978 10.159 10.9713 9.78397 11.0246 9.32849C11.2574 7.33829 11.2574 5.32776 11.0246 3.33758C10.9713 2.88209 10.5978 2.50705 10.1242 2.45412ZM3.95254 0.168341C6.07154 -0.0684834 8.26064 -0.0684834 10.3796 0.168341C11.8989 0.338143 13.1294 1.53413 13.309 3.0704C13.5626 5.23809 13.5626 7.42796 13.309 9.59567C13.1294 11.1319 11.8989 12.3279 10.3796 12.4977C8.26064 12.7346 6.07154 12.7346 3.95254 12.4977C2.43325 12.3279 1.20284 11.1319 1.02316 9.59567C0.769623 7.42796 0.769623 5.23809 1.02316 3.0704C1.20284 1.53413 2.43325 0.338143 3.95254 0.168341Z" fill="#898E96"/>
<path fill-rule="evenodd" clip-rule="evenodd" d="M10.1242 17.7876C8.17496 17.5698 6.15722 17.5698 4.20801 17.7876C3.73438 17.8405 3.36086 18.2156 3.30759 18.6712C3.07481 20.6613 3.07481 22.6718 3.30759 24.6619C3.36086 25.1175 3.73438 25.4925 4.20801 25.5454C6.15722 25.7633 8.17496 25.7633 10.1242 25.5454C10.5978 25.4925 10.9713 25.1175 11.0246 24.6619C11.2574 22.6718 11.2574 20.6613 11.0246 18.6712C10.9713 18.2156 10.5978 17.8405 10.1242 17.7876ZM3.95254 15.5019C6.07154 15.265 8.26064 15.265 10.3796 15.5019C11.8989 15.6716 13.1294 16.8676 13.309 18.4039C13.5626 20.5716 13.5626 22.7615 13.309 24.9292C13.1294 26.4654 11.8989 27.6614 10.3796 27.8312C8.26064 28.0681 6.07154 28.0681 3.95254 27.8312C2.43325 27.6614 1.20284 26.4654 1.02316 24.9292C0.769623 22.7615 0.769623 20.5716 1.02316 18.4039C1.20284 16.8676 2.43325 15.6716 3.95254 15.5019Z" fill="#898E96"/>
<path fill-rule="evenodd" clip-rule="evenodd" d="M25.4572 2.45412C23.5079 2.23626 21.4902 2.23626 19.541 2.45412C19.0674 2.50705 18.6938 2.88209 18.6406 3.33758C18.4079 5.32776 18.4079 7.33829 18.6406 9.32849C18.6938 9.78397 19.0674 10.159 19.541 10.212C21.4902 10.4298 23.5079 10.4298 25.4572 10.212C25.9309 10.159 26.3044 9.78397 26.3576 9.32849C26.5904 7.33829 26.5904 5.32776 26.3576 3.33758C26.3044 2.88209 25.9309 2.50705 25.4572 2.45412ZM19.2856 0.168341C21.4046 -0.0684834 23.5936 -0.0684834 25.7127 0.168341C27.2319 0.338143 28.4624 1.53413 28.642 3.0704C28.8956 5.23809 28.8956 7.42796 28.642 9.59567C28.4624 11.1319 27.2319 12.3279 25.7127 12.4977C23.5936 12.7346 21.4046 12.7346 19.2856 12.4977C17.7663 12.3279 16.5358 11.1319 16.3561 9.59567C16.1027 7.42796 16.1027 5.23809 16.3561 3.0704C16.5358 1.53413 17.7663 0.338143 19.2856 0.168341Z" fill="#898E96"/>
<path fill-rule="evenodd" clip-rule="evenodd" d="M25.4572 17.7876C23.5079 17.5698 21.4902 17.5698 19.541 17.7876C19.0674 17.8405 18.6938 18.2156 18.6406 18.6712C18.4079 20.6613 18.4079 22.6718 18.6406 24.6619C18.6938 25.1175 19.0674 25.4925 19.541 25.5454C21.4902 25.7633 23.5079 25.7633 25.4572 25.5454C25.9309 25.4925 26.3044 25.1175 26.3576 24.6619C26.5904 22.6718 26.5904 20.6613 26.3576 18.6712C26.3044 18.2156 25.9309 17.8405 25.4572 17.7876ZM19.2856 15.5019C21.4046 15.265 23.5936 15.265 25.7127 15.5019C27.2319 15.6716 28.4624 16.8676 28.642 18.4039C28.8956 20.5716 28.8956 22.7615 28.642 24.9292C28.4624 26.4654 27.2319 27.6614 25.7127 27.8312C23.5936 28.0681 21.4046 28.0681 19.2856 27.8312C17.7663 27.6614 16.5358 26.4654 16.3561 24.9292C16.1027 22.7615 16.1027 20.5716 16.3561 18.4039C16.5358 16.8676 17.7663 15.6716 19.2856 15.5019Z" fill="#898E96"/>
</svg>
