<svg width="69" height="20" viewBox="0 0 69 20" fill="none" xmlns="http://www.w3.org/2000/svg">
<path d="M10.2771 19.4999C7.02737 19.5203 2.62275 15.1595 1.3726 12.3263V12.3162L1.34731 12.2585C0.713379 10.7401 0.565855 9.46775 1.26301 7.80434C2.32349 5.2647 7.66383 -0.634837 11.5171 0.691816C14.2712 1.6393 25.5807 8.58049 14.7272 17.3641C13.3363 18.482 11.931 19.4906 10.2771 19.4999ZM5.40799 11.5994C6.66067 13.8048 9.48047 16.3792 11.6925 14.9516C16.2126 12.0345 16.1502 9.22006 13.7216 6.79069C10.9001 3.96943 9.13063 4.45039 6.88069 6.81105C6.34792 7.37004 5.89861 7.73648 5.36331 8.77897C4.97806 9.53306 4.89882 10.7053 5.40799 11.6002V11.5994Z" fill="#53B7D1"/>
<path d="M30.8154 13.7738C31.2438 13.7738 31.6388 13.766 32.0006 13.7502C32.3624 13.7344 32.7343 13.7003 33.1163 13.6478C33.1433 13.6414 33.1713 13.6402 33.1987 13.6441C33.2261 13.648 33.2525 13.657 33.2761 13.6705C33.2998 13.684 33.3203 13.7018 33.3365 13.7228C33.3526 13.7438 33.3642 13.7676 33.3703 13.7927C33.3763 13.8187 33.3763 13.8456 33.3703 13.8715V15.0535C33.3703 15.189 33.2803 15.2833 33.1003 15.3364C32.6584 15.4635 32.2051 15.5529 31.7458 15.6035C31.2584 15.6649 30.7672 15.6965 30.2753 15.6981C29.4848 15.7186 28.6976 15.5958 27.9575 15.3364C27.3567 15.1152 26.8271 14.7541 26.4194 14.2876C26.005 13.7936 25.7107 13.2217 25.5567 12.6116C25.3673 11.8749 25.2763 11.1193 25.2858 10.3619V9.63853C25.2765 8.88157 25.3646 8.1263 25.5483 7.38885C25.6967 6.77969 25.9855 6.20782 26.3948 5.71282C26.7981 5.24555 27.3253 4.88431 27.9245 4.66481C28.6646 4.40555 29.4518 4.28271 30.2423 4.30313C31.1625 4.30903 32.0762 4.44697 32.9513 4.71209C33.029 4.72993 33.0995 4.76823 33.1544 4.82241C33.1908 4.87366 33.2086 4.93441 33.2052 4.99576V6.12888C33.2141 6.17929 33.2013 6.23093 33.1696 6.27265C33.138 6.31437 33.0899 6.34282 33.0359 6.35187C33.008 6.35743 32.9792 6.35743 32.9513 6.35187C32.6352 6.3109 32.2915 6.27938 31.9202 6.25732C31.5488 6.23525 31.1713 6.22501 30.7875 6.22659C30.324 6.21466 29.8622 6.28416 29.4263 6.43146C29.0691 6.56121 28.7607 6.78558 28.5391 7.07681C28.2952 7.41034 28.1309 7.78867 28.0574 8.18629C27.9537 8.70776 27.9055 9.23748 27.9135 9.76776V10.2555C27.9053 10.7836 27.9549 11.3111 28.0616 11.8299C28.1406 12.2268 28.3106 12.6031 28.5603 12.9331C28.7911 13.2209 29.1049 13.4419 29.4652 13.5705C29.8991 13.7166 30.3585 13.7859 30.8197 13.7746L30.8154 13.7738ZM35.33 4.74125C35.33 4.57262 35.4147 4.48909 35.584 4.48909H37.68C37.7427 4.48077 37.8063 4.49592 37.8569 4.53124C37.9076 4.56655 37.9411 4.61913 37.9501 4.67742C37.9535 4.69858 37.9535 4.72009 37.9501 4.74125V12.8763C37.9316 13.113 37.9907 13.3492 38.1194 13.554C38.2083 13.6387 38.3174 13.7028 38.4378 13.7412C38.5583 13.7795 38.6867 13.791 38.8127 13.7746H42.8186C42.8496 13.7704 42.8812 13.7719 42.9116 13.7791C42.942 13.7863 42.9706 13.799 42.9957 13.8165C43.0208 13.834 43.0419 13.856 43.0578 13.8811C43.0738 13.9062 43.0842 13.934 43.0886 13.963C43.092 13.9838 43.092 14.0051 43.0886 14.026V15.1906C43.0886 15.3897 42.9929 15.4948 42.8016 15.5058C42.1808 15.5583 41.4709 15.603 40.6717 15.6398C39.8726 15.6765 39.0441 15.6949 38.1863 15.6949C37.7344 15.7027 37.2831 15.6604 36.842 15.5689C36.5158 15.5035 36.2113 15.3662 35.9539 15.1686C35.7238 14.9771 35.5567 14.7287 35.4723 14.4523C35.3681 14.0987 35.3199 13.7329 35.3292 13.3665L35.33 4.74125ZM47.2832 15.2371C47.2889 15.2735 47.2854 15.3107 47.2729 15.3456C47.2605 15.3805 47.2394 15.4122 47.2115 15.4382C47.1835 15.4643 47.1494 15.4838 47.1119 15.4954C47.0744 15.507 47.0345 15.5103 46.9954 15.505H44.9501C44.9171 15.5095 44.8835 15.5078 44.8511 15.5002C44.8188 15.4926 44.7884 15.4791 44.7617 15.4605C44.7349 15.4419 44.7124 15.4186 44.6954 15.3919C44.6783 15.3652 44.6671 15.3356 44.6623 15.3049C44.6589 15.2824 44.6589 15.2596 44.6623 15.2371V4.77277C44.6623 4.58365 44.7583 4.48909 44.9501 4.48909H46.9954C47.1873 4.48909 47.2832 4.58365 47.2832 4.77277V15.2371ZM55.195 13.7738C55.6245 13.7738 56.0195 13.766 56.3801 13.7502C56.7408 13.7344 57.1127 13.7003 57.4959 13.6478C57.5228 13.6414 57.5508 13.6402 57.5782 13.6441C57.6057 13.648 57.632 13.657 57.6557 13.6705C57.6793 13.684 57.6998 13.7018 57.716 13.7228C57.7322 13.7438 57.7437 13.7676 57.7499 13.7927C57.7549 13.8175 57.7549 13.8429 57.7499 13.8676V15.0496C57.7499 15.1859 57.6601 15.2805 57.479 15.3332C57.037 15.46 56.5837 15.5494 56.1245 15.6004C55.6367 15.661 55.1453 15.6926 54.6532 15.6949C53.863 15.7147 53.0761 15.5916 52.3362 15.3325C51.7359 15.1123 51.2063 14.7526 50.7981 14.2876C50.3849 13.7932 50.0915 13.2214 49.938 12.6116C49.7486 11.8749 49.6576 11.1193 49.6671 10.3619V9.63774C49.6578 8.88079 49.7459 8.12552 49.9295 7.38807C50.0782 6.77901 50.367 6.2072 50.776 5.71204C51.1793 5.245 51.7066 4.88402 52.3057 4.66481C53.0456 4.40569 53.8325 4.2826 54.6227 4.30234C55.543 4.30813 56.4568 4.44635 57.3317 4.71209C57.4094 4.72993 57.4799 4.76823 57.5348 4.82241C57.5711 4.8734 57.589 4.93388 57.5856 4.99498V6.12415C57.5945 6.17456 57.5817 6.2262 57.55 6.26792C57.5184 6.30964 57.4703 6.3381 57.4163 6.34715C57.3884 6.35229 57.3596 6.35229 57.3317 6.34715C57.0156 6.30617 56.6719 6.27465 56.3006 6.25259C55.9292 6.23053 55.5517 6.22028 55.1679 6.22186C54.7044 6.20922 54.2425 6.27847 53.8067 6.42594C53.4494 6.55596 53.1408 6.78027 52.9186 7.0713C52.6761 7.40549 52.5119 7.78354 52.437 8.18077C52.3339 8.70258 52.286 9.23253 52.2939 9.76303V10.2508C52.2853 10.7802 52.335 11.3091 52.442 11.8291C52.5205 12.2261 52.6907 12.6025 52.9406 12.9323C53.1712 13.2202 53.4851 13.441 53.8456 13.569C54.2793 13.7158 54.7388 13.7853 55.2001 13.7738H55.195ZM68.197 4.48909C68.2345 4.48566 68.2721 4.49276 68.3052 4.50948C68.3382 4.52619 68.3651 4.55176 68.3824 4.58286C68.3986 4.61636 68.4041 4.65349 68.3982 4.68981C68.3924 4.72614 68.3754 4.76013 68.3494 4.78774L64.7313 9.79613L68.8235 15.2253C68.8452 15.2504 68.859 15.2807 68.8633 15.3127C68.8676 15.3447 68.8623 15.3772 68.848 15.4065C68.8323 15.441 68.8048 15.4697 68.7697 15.4881C68.7346 15.5065 68.694 15.5136 68.6541 15.5082H66.2703C66.1721 15.513 66.074 15.4971 65.9833 15.4617C65.9055 15.4207 65.8411 15.3608 65.7971 15.2883L62.3313 10.3784V15.2411C62.3408 15.3031 62.3233 15.3661 62.2828 15.4162C62.2423 15.4663 62.1821 15.4994 62.1155 15.5082C62.0919 15.5113 62.0679 15.5113 62.0444 15.5082H59.9983C59.9316 15.5169 59.8639 15.5007 59.8101 15.463C59.7563 15.4253 59.7207 15.3693 59.7113 15.3072C59.7071 15.2854 59.7071 15.2629 59.7113 15.2411V4.77198C59.7113 4.58286 59.8069 4.48831 59.9983 4.48831H62.0444C62.2357 4.48831 62.3313 4.58286 62.3313 4.77198V9.20908L65.5634 4.67427C65.6066 4.61556 65.6646 4.56767 65.7324 4.53482C65.8001 4.50197 65.8756 4.48518 65.952 4.48594L68.197 4.48909Z" fill="#141521"/>
</svg>
