<svg width="16" height="16" viewBox="0 0 16 16" fill="none" xmlns="http://www.w3.org/2000/svg">
<path d="M12.0843 9.51281C10.9722 9.51281 10.0675 10.4175 10.0675 11.5296C10.0675 12.6417 10.9722 13.5464 12.0843 13.5464C13.1966 13.5464 14.1011 12.6417 14.1011 11.5296C14.1011 10.4175 13.1964 9.51281 12.0843 9.51281ZM12.0843 12.538C11.5282 12.538 11.0759 12.0857 11.0759 11.5296C11.0759 10.9735 11.5282 10.5212 12.0843 10.5212C12.6404 10.5212 13.0927 10.9735 13.0927 11.5296C13.0927 12.0858 12.6404 12.538 12.0843 12.538ZM5.19357 9.51281C4.08148 9.51281 3.17676 10.4175 3.17676 11.5296C3.17676 12.6417 4.08148 13.5464 5.19357 13.5464C6.30566 13.5464 7.21038 12.6417 7.21038 11.5296C7.21038 10.4175 6.30566 9.51281 5.19357 9.51281ZM5.19357 12.538C4.63745 12.538 4.18516 12.0857 4.18516 11.5296C4.18516 10.9735 4.63745 10.5212 5.19357 10.5212C5.74954 10.5212 6.20198 10.9735 6.20198 11.5296C6.20198 12.0858 5.7497 12.538 5.19357 12.538ZM13.4425 3.74006C13.4005 3.65658 13.3361 3.58642 13.2565 3.53739C13.177 3.48837 13.0853 3.4624 12.9919 3.4624H10.3364V4.47081H12.6809L14.0539 7.20156L14.9551 6.74843L13.4425 3.74006Z" fill="#3C486B" fill-opacity="0.7"/>
<path d="M6.75631 11.0419H10.5714V12.0503H6.75631V11.0419ZM3.68066 11.0419H1.93278C1.65428 11.0419 1.42859 11.2676 1.42859 11.5461C1.42859 11.8245 1.65431 12.0502 1.93278 12.0502H3.68069C3.95919 12.0502 4.18488 11.8245 4.18488 11.5461C4.18488 11.2675 3.95916 11.0419 3.68066 11.0419ZM15.8941 7.95949L14.9024 6.68218C14.8553 6.62145 14.7949 6.57231 14.7259 6.53851C14.6569 6.50472 14.5811 6.48717 14.5042 6.48721H10.8403V2.9578C10.8403 2.6793 10.6146 2.45361 10.3362 2.45361H1.93278C1.65428 2.45361 1.42859 2.67933 1.42859 2.9578C1.42859 3.23627 1.65431 3.46199 1.93278 3.46199H9.83194V6.99139C9.83194 7.26989 10.0577 7.49558 10.3361 7.49558H14.2573L14.9916 8.44146V11.0418H13.5966C13.3181 11.0418 13.0924 11.2675 13.0924 11.546C13.0924 11.8245 13.3182 12.0502 13.5966 12.0502H15.4958C15.7743 12.0502 16 11.8245 16 11.546V8.26874C16 8.1568 15.9627 8.04789 15.8941 7.95949ZM3.64706 8.48724H1.32772C1.04922 8.48724 0.823531 8.71296 0.823531 8.99142C0.823531 9.26992 1.04925 9.49561 1.32772 9.49561H3.64703C3.92553 9.49561 4.15122 9.26989 4.15122 8.99142C4.15125 8.71296 3.92553 8.48724 3.64706 8.48724ZM4.80672 6.50402H0.504188C0.225719 6.50402 0 6.72974 0 7.00824C0 7.28674 0.225719 7.51242 0.504188 7.51242H4.80672C5.08522 7.51242 5.31091 7.28671 5.31091 7.00824C5.31091 6.72977 5.08522 6.50402 4.80672 6.50402Z" fill="#3C486B" fill-opacity="0.7"/>
<path d="M5.62996 4.521H1.32743C1.04893 4.521 0.823242 4.74671 0.823242 5.02518C0.823242 5.30368 1.04896 5.52937 1.32743 5.52937H5.62996C5.90846 5.52937 6.13415 5.30365 6.13415 5.02518C6.13418 4.74671 5.90846 4.521 5.62996 4.521Z" fill="#3C486B" fill-opacity="0.7"/>
</svg>
