<?xml version="1.0" encoding="UTF-8"?>
<!DOCTYPE svg PUBLIC "-//W3C//DTD SVG 1.1//EN" "http://www.w3.org/Graphics/SVG/1.1/DTD/svg11.dtd">
<svg xmlns="http://www.w3.org/2000/svg" version="1.1" width="200px" height="200px" style="shape-rendering:geometricPrecision; text-rendering:geometricPrecision; image-rendering:optimizeQuality; fill-rule:evenodd; clip-rule:evenodd" xmlns:xlink="http://www.w3.org/1999/xlink">
<g><path style="opacity:0.99" fill="#898e96" d="M 9.5,-0.5 C 46.1667,-0.5 82.8333,-0.5 119.5,-0.5C 126.55,2.55507 131.05,7.88841 133,15.5C 133.667,31.8333 133.667,48.1667 133,64.5C 130.791,66.7064 128.291,67.0398 125.5,65.5C 124.667,50.5111 124.167,35.5111 124,20.5C 123.456,15.964 121.29,12.464 117.5,10C 94.9216,8.3549 72.255,8.02157 49.5,9C 58.9742,11.9359 68.3075,15.2692 77.5,19C 80.1642,21.6692 81.9976,24.8359 83,28.5C 83.5,74.1655 83.6667,119.832 83.5,165.5C 94.1719,165.667 104.839,165.5 115.5,165C 120.619,162.878 123.452,159.044 124,153.5C 124.167,138.489 124.667,123.489 125.5,108.5C 128.291,106.96 130.791,107.294 133,109.5C 133.667,125.833 133.667,142.167 133,158.5C 131.363,166.138 126.863,171.305 119.5,174C 107.505,174.5 95.5046,174.667 83.5,174.5C 85.4648,185.552 81.7981,193.886 72.5,199.5C 68.1667,199.5 63.8333,199.5 59.5,199.5C 42.0026,193.198 24.336,187.032 6.5,181C 3.54644,178.559 1.21311,175.725 -0.5,172.5C -0.5,118.167 -0.5,63.8333 -0.5,9.5C 1.83333,5.16667 5.16667,1.83333 9.5,-0.5 Z M 13.5,8.5 C 31.7478,13.1202 49.7478,18.6202 67.5,25C 69.6238,26.1217 71.4571,27.6217 73,29.5C 74.6485,80.4547 74.9818,131.455 74,182.5C 72.9923,188.51 69.4923,191.01 63.5,190C 46.5597,184.181 29.5597,178.514 12.5,173C 10.9512,171.786 9.78451,170.286 9,168.5C 8.33333,116.833 8.33333,65.1667 9,13.5C 10.025,11.313 11.525,9.64638 13.5,8.5 Z"/></g>
<g><path style="opacity:0.947" fill="#898e96" d="M 199.5,83.5 C 199.5,85.8333 199.5,88.1667 199.5,90.5C 188.035,101.465 176.702,112.631 165.5,124C 159.348,125.735 156.848,123.568 158,117.5C 166.5,109 175,100.5 183.5,92C 158.833,91.6667 134.167,91.3333 109.5,91C 106.833,88.3333 106.833,85.6667 109.5,83C 134.167,82.6667 158.833,82.3333 183.5,82C 175,73.5 166.5,65 158,56.5C 156.848,50.4321 159.348,48.2655 165.5,50C 176.702,61.3687 188.035,72.5354 199.5,83.5 Z"/></g>
</svg>
