<svg width="20" height="20" viewBox="0 0 20 20" fill="none" xmlns="http://www.w3.org/2000/svg">
<g clip-path="url(#clip0_9267_10879)">
<path d="M1.66797 10.0001H18.3346M1.66797 10.0001C1.66797 14.6025 5.39893 18.3334 10.0013 18.3334M1.66797 10.0001C1.66797 5.39771 5.39893 1.66675 10.0013 1.66675M18.3346 10.0001C18.3346 14.6025 14.6037 18.3334 10.0013 18.3334M18.3346 10.0001C18.3346 5.39771 14.6037 1.66675 10.0013 1.66675M10.0013 1.66675C12.0857 3.94871 13.2703 6.91011 13.3346 10.0001C13.2703 13.0901 12.0857 16.0515 10.0013 18.3334M10.0013 1.66675C7.9169 3.94871 6.73234 6.91011 6.66797 10.0001C6.73234 13.0901 7.9169 16.0515 10.0013 18.3334" stroke="#898E96" stroke-width="1.6" stroke-linecap="round" stroke-linejoin="round"/>
</g>
<defs>
<clipPath id="clip0_9267_10879">
<rect width="20" height="20" fill="white"/>
</clipPath>
</defs>
</svg>
