<svg width="24" height="24" viewBox="0 0 24 24" fill="none" xmlns="http://www.w3.org/2000/svg">
<g clip-path="url(#clip0_2228_2615)">
<path d="M17.9997 0C16.5415 0.00158817 15.1435 0.581561 14.1124 1.61267C13.0813 2.64377 12.5013 4.0418 12.4997 5.5C12.4997 5.783 12.5287 6.072 12.5887 6.399C12.7101 7.17403 12.9991 7.91324 13.4357 8.565C13.6677 8.968 13.9337 9.38 14.2187 9.823C15.3337 11.554 16.7207 13.708 17.5097 17.599C17.5327 17.712 17.594 17.8136 17.6833 17.8866C17.7726 17.9596 17.8844 17.9995 17.9997 17.9995C18.1151 17.9995 18.2268 17.9596 18.3161 17.8866C18.4054 17.8136 18.4668 17.712 18.4897 17.599C19.2777 13.708 20.6647 11.554 21.7807 9.823C22.0657 9.38 22.3317 8.968 22.5427 8.597C22.9884 7.93968 23.2841 7.19235 23.4087 6.408C23.4671 6.10881 23.4976 5.80483 23.4997 5.5C23.4997 2.467 21.0327 0 17.9997 0ZM17.9997 4C18.8267 4 19.4997 4.673 19.4997 5.5C19.4997 6.327 18.8267 7 17.9997 7C17.1727 7 16.4997 6.327 16.4997 5.5C16.4997 4.673 17.1727 4 17.9997 4ZM22.1267 11.852C22.02 11.8236 21.9069 11.8314 21.805 11.8741C21.7032 11.9168 21.6183 11.992 21.5637 12.088C20.8847 13.285 20.0327 15.015 19.4687 17.798C19.4289 17.993 19.3503 18.178 19.2376 18.3421C19.1249 18.5061 18.9804 18.6459 18.8127 18.753C18.7502 18.7936 18.6976 18.8476 18.6587 18.9111C18.6198 18.9747 18.5956 19.0461 18.5878 19.1202C18.5801 19.1943 18.589 19.2692 18.6139 19.3394C18.6388 19.4096 18.679 19.4733 18.7317 19.526L21.5717 22.366C21.6339 22.4282 21.7114 22.4729 21.7963 22.4955C21.8813 22.5182 21.9707 22.5181 22.0556 22.4952C22.1405 22.4722 22.2178 22.4273 22.2798 22.365C22.3418 22.3026 22.3863 22.225 22.4087 22.14C22.4707 21.906 22.4997 21.702 22.4997 21.501V12.336C22.4998 12.2254 22.4632 12.118 22.3958 12.0304C22.3283 11.9428 22.2337 11.8801 22.1267 11.852ZM12.5607 13.354L15.0567 15.85C15.136 15.9301 15.2402 15.9808 15.3521 15.9939C15.464 16.007 15.5771 15.9816 15.6727 15.922C15.7685 15.8629 15.8416 15.7732 15.8801 15.6674C15.9185 15.5615 15.9202 15.4459 15.8847 15.339C15.4793 14.1089 14.9411 12.9266 14.2797 11.813C14.2412 11.747 14.1879 11.6907 14.1241 11.6485C14.0604 11.6063 13.9877 11.5793 13.9119 11.5696C13.836 11.5599 13.7589 11.5678 13.6866 11.5927C13.6143 11.6176 13.5486 11.6587 13.4947 11.713L12.5607 12.647C12.5142 12.6934 12.4773 12.7485 12.4521 12.8091C12.4269 12.8698 12.4139 12.9348 12.4139 13.0005C12.4139 13.0662 12.4269 13.1312 12.4521 13.1919C12.4773 13.2525 12.5142 13.3076 12.5607 13.354ZM11.8537 14.061C11.76 13.9673 11.6328 13.9146 11.5002 13.9146C11.3676 13.9146 11.2405 13.9673 11.1467 14.061L2.13472 23.073C2.07255 23.1352 2.02787 23.2126 2.00519 23.2976C1.98252 23.3826 1.98265 23.472 2.00557 23.5569C2.02849 23.6418 2.07339 23.7191 2.13575 23.7811C2.1981 23.8431 2.2757 23.8876 2.36072 23.91C2.59472 23.971 2.79772 24 2.99972 24H19.9997C20.2017 24 20.4047 23.971 20.6387 23.909C20.7239 23.8868 20.8018 23.8425 20.8643 23.7805C20.9269 23.7186 20.9719 23.6412 20.9949 23.5561C21.0178 23.4711 21.0179 23.3816 20.995 23.2965C20.9721 23.2115 20.9272 23.134 20.8647 23.072L11.8537 14.061Z" fill="black"/>
<path d="M5 8C5.55228 8 6 7.55228 6 7C6 6.44772 5.55228 6 5 6C4.44772 6 4 6.44772 4 7C4 7.55228 4.44772 8 5 8Z" fill="black"/>
<path d="M5.63108 10.052C4.47508 10.221 3.95008 10.479 3.71408 10.666C3.62464 10.7364 3.56192 10.8353 3.53628 10.9462C3.51064 11.0571 3.52362 11.1735 3.57308 11.276C3.67908 11.494 4.02808 12 5.00008 12C5.64308 12 6.05408 11.925 6.25808 11.772C6.34847 11.7044 6.41332 11.6082 6.44208 11.499C6.48108 11.367 6.50008 11.203 6.50008 11C6.50008 10.673 6.27308 10.415 6.06208 10.197C6.00658 10.1408 5.93867 10.0984 5.86382 10.0732C5.78897 10.0481 5.70925 10.0408 5.63108 10.052Z" fill="black"/>
<path d="M13.132 9.972C12.947 9.682 12.763 9.396 12.605 9.124L12.589 9.099C12.0817 8.33024 11.7448 7.46178 11.601 6.552C11.5348 6.20522 11.501 5.85304 11.5 5.5C11.5 4.876 11.592 4.252 11.774 3.643C11.7958 3.56839 11.8 3.48973 11.7863 3.41322C11.7726 3.33671 11.7412 3.26444 11.6948 3.2021C11.6483 3.13976 11.5881 3.08905 11.5187 3.05398C11.4493 3.01891 11.3727 3.00043 11.295 3H3C2.3372 3.00079 1.70178 3.26444 1.23311 3.73311C0.764441 4.20178 0.500794 4.8372 0.5 5.5V21.5C0.5 21.702 0.529 21.905 0.591 22.139C0.613166 22.2242 0.657484 22.302 0.719456 22.3646C0.781428 22.4271 0.858847 22.4722 0.943852 22.4951C1.02886 22.5181 1.11842 22.5181 1.20345 22.4953C1.28849 22.4724 1.36596 22.4275 1.428 22.365L13.117 10.676C13.283 10.51 13.259 10.17 13.132 9.972ZM7.208 5.949C7.10289 5.99783 7.01806 6.08172 6.96807 6.18628C6.91807 6.29083 6.90602 6.40953 6.934 6.522C6.979 6.703 7 6.854 7 7C7.00054 7.2645 6.94808 7.52643 6.84571 7.77032C6.74335 8.01421 6.59315 8.23512 6.404 8.42C6.35727 8.4664 6.32015 8.52155 6.29476 8.58231C6.26937 8.64307 6.25621 8.70824 6.25602 8.77409C6.25583 8.83993 6.26863 8.90517 6.29368 8.96607C6.31873 9.02697 6.35554 9.08234 6.402 9.129L6.548 9.272C6.95 9.661 7.5 10.192 7.5 11C7.5 12.758 6.298 13 5 13C3.275 13 2.5 11.831 2.5 11C2.5 10.763 2.5 10.042 3.768 9.51C3.85052 9.4754 3.92225 9.41929 3.97569 9.34752C4.02913 9.27575 4.06234 9.19095 4.07184 9.10198C4.08134 9.013 4.06679 8.92311 4.0297 8.84167C3.99262 8.76023 3.93436 8.69024 3.861 8.639C3.5962 8.45524 3.37967 8.21028 3.22977 7.92495C3.07988 7.63961 3.00106 7.32231 3 7C3 5.897 3.897 5 5 5H7C7.06726 4.97002 7.14035 4.95539 7.21397 4.95718C7.28759 4.95897 7.35989 4.97713 7.42561 5.01034C7.49134 5.04355 7.54885 5.09098 7.59396 5.14919C7.63907 5.20739 7.67066 5.27491 7.68642 5.34685C7.70219 5.41878 7.70174 5.49332 7.68511 5.56506C7.66848 5.63679 7.63608 5.70393 7.59027 5.76159C7.54446 5.81924 7.48639 5.86598 7.42027 5.89839C7.35414 5.93081 7.28164 5.9481 7.208 5.949Z" fill="black"/>
</g>
<defs>
<clipPath id="clip0_2228_2615">
<rect width="24" height="24" fill="white"/>
</clipPath>
</defs>
</svg>
