<svg width="16" height="15" viewBox="0 0 16 15" fill="none" xmlns="http://www.w3.org/2000/svg">
<path d="M8.0046 1.26617C9.21687 0.491044 10.7006 0.29273 12.0681 0.723045C13.2575 1.09293 14.2465 1.94255 14.8053 3.0744C15.4586 4.44622 15.5475 6.02692 15.0523 7.4658C14.5965 8.7904 13.8493 9.9912 12.8678 10.9763C12.2242 11.6377 11.5308 12.2467 10.7938 12.7977L10.7548 12.8309C10.5099 12.9957 10.1806 12.931 10.0136 12.6851C9.92865 12.5664 9.89454 12.4177 9.91904 12.2729C9.94355 12.1282 10.0246 11.9997 10.1436 11.9168C10.8352 11.3957 11.4872 10.8223 12.0941 10.2013C12.9681 9.34118 13.6356 8.2872 14.0446 7.12137C14.4379 5.95968 14.3583 4.6859 13.8235 3.58441C13.3932 2.7179 12.6349 2.06738 11.7235 1.78281C10.561 1.41249 9.29456 1.63698 8.32317 2.38555C8.13006 2.53128 7.86613 2.53128 7.67302 2.38555C6.70208 1.63594 5.43509 1.41136 4.27268 1.78281C3.35518 2.06109 2.58936 2.70965 2.15317 3.57779C1.63045 4.67846 1.55567 5.94493 1.94512 7.1015C2.3558 8.26453 3.0231 9.31598 3.89559 10.1748C5.18479 11.4342 6.6064 12.5448 8.13463 13.4866C8.329 13.6239 8.41447 13.8732 8.34637 14.1039C8.27826 14.3347 8.07205 14.4946 7.83556 14.5C7.72895 14.5006 7.62466 14.4683 7.53648 14.4073C5.94452 13.4264 4.46398 12.269 3.1219 10.9564C2.13494 9.97457 1.38495 8.77293 0.930867 7.44593C0.452791 6.00904 0.550928 4.43796 1.20393 3.0744C1.76266 1.94255 2.75169 1.09293 3.9411 0.723045C5.30862 0.29273 6.79232 0.491044 8.0046 1.26617ZM10.8653 3.44531C11.8347 3.75708 12.5248 4.63254 12.6142 5.6642L12.6184 5.75066C12.6149 5.86548 12.5757 5.97706 12.5054 6.06869C12.4174 6.18323 12.288 6.25703 12.1461 6.27356C11.8484 6.31276 11.5754 6.09975 11.535 5.79667C11.5078 5.18456 11.1077 4.65516 10.5337 4.47196C10.3203 4.33623 10.2255 4.06957 10.3042 3.82612C10.3828 3.58268 10.6145 3.42544 10.8653 3.44531Z" fill="#3C486B" fill-opacity="0.9"/>
</svg>
