<svg width="64" height="64" viewBox="0 0 64 64" fill="none" xmlns="http://www.w3.org/2000/svg">
<path d="M62 20C62.1762 20 62.3493 19.9535 62.5018 19.865C62.6542 19.7766 62.7806 19.6495 62.8681 19.4965C62.9556 19.3436 63.0011 19.1702 63 18.994C62.999 18.8177 62.9513 18.6449 62.862 18.493L55.762 6.41802C56.2757 6.04721 56.6585 5.52289 56.8551 4.92061C57.0517 4.31833 57.0521 3.66918 56.8562 3.06667C56.6602 2.46416 56.2781 1.9394 55.7648 1.568C55.2515 1.1966 54.6336 0.99772 54 1.00002H10C9.36661 0.998146 8.74896 1.19733 8.23599 1.56889C7.72303 1.94045 7.34121 2.46522 7.14552 3.06763C6.94984 3.67003 6.95037 4.319 7.14706 4.92109C7.34374 5.52317 7.72642 6.04731 8.24 6.41802L1.14 18.493C1.05074 18.6448 1.00312 18.8174 1.00197 18.9935C1.00081 19.1695 1.04616 19.3428 1.13342 19.4957C1.22068 19.6486 1.34677 19.7757 1.49893 19.8643C1.65109 19.9529 1.82394 19.9997 2 20H4V40H2C1.73478 40 1.48043 40.1054 1.29289 40.2929C1.10536 40.4804 1 40.7348 1 41V46C1 46.2652 1.10536 46.5196 1.29289 46.7071C1.48043 46.8947 1.73478 47 2 47V62C2 62.2652 2.10536 62.5196 2.29289 62.7071C2.48043 62.8947 2.73478 63 3 63H61C61.2652 63 61.5196 62.8947 61.7071 62.7071C61.8946 62.5196 62 62.2652 62 62V47C62.2652 47 62.5196 46.8947 62.7071 46.7071C62.8946 46.5196 63 46.2652 63 46V41C63 40.7348 62.8946 40.4804 62.7071 40.2929C62.5196 40.1054 62.2652 40 62 40H60V20H62ZM52.64 18L47.563 7.00002H53.781L60.252 18H52.64ZM47 40V36H54V40H47ZM54 34H47V32H54V34ZM54 30H47V28.2C47.0783 27.3258 47.4809 26.5125 48.1286 25.9202C48.7763 25.3279 49.6223 24.9994 50.5 24.9994C51.3777 24.9994 52.2237 25.3279 52.8714 25.9202C53.5191 26.5125 53.9217 27.3258 54 28.2V30ZM54 24.192C52.9992 23.4149 51.7671 22.9953 50.5 23C49.0819 22.9631 47.7069 23.4896 46.6761 24.4642C45.6453 25.4388 45.0426 26.7821 45 28.2V40H39.853C40.053 39.832 40.2457 39.655 40.431 39.469C43.55 36.351 43.866 31.592 41.138 28.862C38.41 26.132 33.649 26.451 30.531 29.569C29.0689 30.9994 28.1654 32.9047 27.983 34.942C27.8945 35.856 27.9987 36.7783 28.2888 37.6496C28.5788 38.5208 29.0483 39.3215 29.667 40H24.878C25.5999 39.0965 25.9953 37.9755 26 36.819V32C25.9702 31.222 25.6538 30.4824 25.1116 29.9236C24.5695 29.3648 23.8398 29.0262 23.063 28.973C22.7965 28.2364 22.306 27.6017 21.6603 27.1581C21.0146 26.7146 20.2462 26.4844 19.463 26.5C18.6982 26.5302 17.9592 26.7848 17.3381 27.232C16.717 27.6792 16.2412 28.2993 15.97 29.015C15.752 28.9745 15.5307 28.9541 15.309 28.954C14.4668 28.9212 13.6459 29.2233 13.0258 29.7941C12.4057 30.3649 12.0369 31.158 12 32V36.819C12.0047 37.9755 12.4001 39.0965 13.122 40H10V20H54V24.192ZM29.978 35.1C30.1492 33.4725 30.8999 31.9608 32.0933 30.8409C33.2866 29.721 34.8429 29.0676 36.478 29C36.565 29 36.648 29.018 36.734 29.022L29.989 35.768C29.9709 35.5458 29.9672 35.3227 29.978 35.1ZM31.238 38.766C31.0005 38.525 30.7926 38.2565 30.619 37.966L38.924 29.666C39.5088 30.0076 39.9976 30.4916 40.345 31.073L32.033 39.385C31.7443 39.2095 31.4774 39.0004 31.238 38.762V38.766ZM34.238 40.004L40.971 33.272C40.9934 34.162 40.831 35.0469 40.494 35.8709C40.157 36.6948 39.6527 37.4399 39.013 38.059C37.9494 39.145 36.5436 39.8306 35.033 40L34.238 40.004ZM14 36.819V35H24V36.819C23.9989 37.6623 23.6635 38.4708 23.0671 39.0672C22.4708 39.6635 21.6623 39.999 20.819 40H17.181C16.3377 39.999 15.5292 39.6635 14.9329 39.0672C14.3365 38.4708 14.0011 37.6623 14 36.819ZM24 33H14V32C14.0387 31.6896 14.197 31.4065 14.4413 31.2111C14.6857 31.0157 14.9966 30.9235 15.308 30.954C15.602 30.9514 15.8903 31.0352 16.137 31.195C16.2875 31.2955 16.4625 31.3532 16.6432 31.362C16.824 31.3708 17.0037 31.3304 17.1633 31.2451C17.3229 31.1598 17.4564 31.0328 17.5495 30.8777C17.6426 30.7225 17.6918 30.545 17.692 30.364C17.7158 29.8931 17.9074 29.4463 18.232 29.1044C18.5567 28.7625 18.993 28.5481 19.462 28.5C19.8932 28.4733 20.3179 28.6146 20.6472 28.8942C20.9765 29.1739 21.1846 29.5702 21.228 30C21.2282 30.1463 21.2604 30.2908 21.3225 30.4233C21.3846 30.5558 21.475 30.673 21.5873 30.7668C21.6996 30.8605 21.8312 30.9285 21.9726 30.9658C22.1141 31.0032 22.262 31.0091 22.406 30.983C23.184 30.84 24 31.345 24 32V33ZM26.646 7.00002L23.261 18H13.561L18.64 7.00002H26.646ZM45.36 7.00002L50.437 18H40.737L37.354 7.00002H45.36ZM35.26 7.00002L38.645 18H25.354L28.739 7.00002H35.26ZM10 3.00002H54C54.2652 3.00002 54.5196 3.10538 54.7071 3.29291C54.8946 3.48045 55 3.7348 55 4.00002C55 4.26524 54.8946 4.51959 54.7071 4.70713C54.5196 4.89466 54.2652 5.00002 54 5.00002H10C9.73478 5.00002 9.48043 4.89466 9.29289 4.70713C9.10536 4.51959 9 4.26524 9 4.00002C9 3.7348 9.10536 3.48045 9.29289 3.29291C9.48043 3.10538 9.73478 3.00002 10 3.00002ZM10.219 7.00002H16.437L11.36 18H3.748L10.219 7.00002ZM6 20H8V40H6V20ZM4 47H11V61H4V47ZM51 47V61H49V47H51ZM47 61H33V58H35C36.3256 57.9984 37.5964 57.4711 38.5338 56.5338C39.4711 55.5965 39.9984 54.3256 40 53V50C40 49.7348 39.8946 49.4804 39.7071 49.2929C39.5196 49.1054 39.2652 49 39 49H36C35.2209 49.0022 34.4532 49.1871 33.7585 49.5398C33.0638 49.8925 32.4615 50.4033 32 51.031C31.5385 50.4033 30.9362 49.8925 30.2415 49.5398C29.5468 49.1871 28.7791 49.0022 28 49H25C24.7348 49 24.4804 49.1054 24.2929 49.2929C24.1054 49.4804 24 49.7348 24 50V53C24.0016 54.3256 24.5289 55.5965 25.4662 56.5338C26.4036 57.4711 27.6744 57.9984 29 58H31V61H17V47H47V61ZM31 56H29C28.2044 56 27.4413 55.6839 26.8787 55.1213C26.3161 54.5587 26 53.7957 26 53V51H28C28.7956 51 29.5587 51.3161 30.1213 51.8787C30.6839 52.4413 31 53.2044 31 54V56ZM33 54C33 53.2044 33.3161 52.4413 33.8787 51.8787C34.4413 51.3161 35.2044 51 36 51H38V53C38 53.7957 37.6839 54.5587 37.1213 55.1213C36.5587 55.6839 35.7956 56 35 56H33V54ZM15 61H13V47H15V61ZM60 61H53V47H60V61ZM61 45H3V42H33.741C33.981 42.024 34.224 42.039 34.471 42.039C34.6643 42.039 34.86 42.0317 35.058 42.017C35.102 42.017 35.146 42.004 35.191 42H61V45ZM58 40H56V20H58V40Z" fill="black"/>
</svg>
