<?xml version="1.0" encoding="UTF-8"?>
<!DOCTYPE svg PUBLIC "-//W3C//DTD SVG 1.1//EN" "http://www.w3.org/Graphics/SVG/1.1/DTD/svg11.dtd">
<svg xmlns="http://www.w3.org/2000/svg" version="1.1" width="112px" height="112px" style="shape-rendering:geometricPrecision; text-rendering:geometricPrecision; image-rendering:optimizeQuality; fill-rule:evenodd; clip-rule:evenodd" xmlns:xlink="http://www.w3.org/1999/xlink">
<g><path style="opacity:0.913" fill="#898e96" d="M 45.5,-0.5 C 50.1667,-0.5 54.8333,-0.5 59.5,-0.5C 64.2265,2.65438 69.5598,4.48771 75.5,5C 77.9167,6.66261 79.75,8.82927 81,11.5C 81.3333,17.8333 81.6667,24.1667 82,30.5C 85.4294,35.7211 84.2628,39.7211 78.5,42.5C 77.4518,51.1011 73.4518,57.9344 66.5,63C 67.5202,65.0257 69.1868,66.3591 71.5,67C 76.5597,68.5143 81.5597,70.1809 86.5,72C 87.6667,73.1667 88.8333,74.3333 90,75.5C 92.6466,85.2065 94.8133,95.0398 96.5,105C 96.1598,107.511 95.1598,109.678 93.5,111.5C 77.5,111.5 61.5,111.5 45.5,111.5C 44.2086,110.527 44.2086,109.527 45.5,108.5C 56.1459,107.501 66.8126,107.168 77.5,107.5C 77.5,101.833 77.5,96.1667 77.5,90.5C 78.8221,90.33 79.9887,90.6634 81,91.5C 81.4994,96.8229 81.666,102.156 81.5,107.5C 85.6348,108.11 89.3014,107.277 92.5,105C 90.4179,96.5922 88.5845,88.0922 87,79.5C 86.5348,78.0692 85.7014,76.9025 84.5,76C 79.9835,74.4945 75.4835,72.9945 71,71.5C 69.8608,74.5833 68.5275,77.5833 67,80.5C 63.295,83.0371 59.4617,85.3704 55.5,87.5C 51.7064,85.5379 48.0397,83.3712 44.5,81C 42.7349,77.8602 41.0683,74.6936 39.5,71.5C 35.1931,73.1022 30.8598,74.6022 26.5,76C 25.1068,77.1711 24.2735,78.6711 24,80.5C 22.3944,88.7525 20.561,96.9192 18.5,105C 21.6986,107.277 25.3652,108.11 29.5,107.5C 29.334,102.156 29.5006,96.8229 30,91.5C 31.7141,90.0745 33.0475,90.4078 34,92.5C 34.4993,97.4889 34.6659,102.489 34.5,107.5C 36.5273,107.338 38.5273,107.505 40.5,108C 41.3366,109.011 41.67,110.178 41.5,111.5C 33.5,111.5 25.5,111.5 17.5,111.5C 15.8402,109.678 14.8402,107.511 14.5,105C 16.1867,95.0398 18.3534,85.2065 21,75.5C 22.5429,73.6217 24.3762,72.1217 26.5,71C 31.9052,69.5314 37.2385,67.8648 42.5,66C 43.5742,65.2613 44.2409,64.2613 44.5,63C 38.0777,57.6652 34.0777,50.8319 32.5,42.5C 30.7419,41.8721 29.2419,40.8721 28,39.5C 28.8954,31.9946 29.5621,24.328 30,16.5C 31,15.1667 32,15.1667 33,16.5C 33.3333,20.1667 33.6667,23.8333 34,27.5C 44.5797,25.3965 55.0797,22.7298 65.5,19.5C 69.9367,20.7555 73.77,23.0888 77,26.5C 77.6667,22.1667 77.6667,17.8333 77,13.5C 74.8323,8.84073 71.3323,7.17407 66.5,8.5C 54.5069,0.550644 44.0069,2.21731 35,13.5C 32.0335,12.01 31.7002,10.01 34,7.5C 37.4821,4.16083 41.3155,1.49416 45.5,-0.5 Z M 64.5,23.5 C 71.8021,25.6399 74.8021,30.4733 73.5,38C 73.9343,50.7255 67.9343,58.2255 55.5,60.5C 46.8691,59.3727 41.0358,54.706 38,46.5C 37.5006,41.1771 37.334,35.8437 37.5,30.5C 46.9659,29.5512 55.9659,27.2178 64.5,23.5 Z M 31.5,33.5 C 33.3442,34.2039 33.8442,35.5372 33,37.5C 31.8118,36.4366 31.3118,35.1033 31.5,33.5 Z M 77.5,33.5 C 78.5862,33.62 79.2528,34.2867 79.5,35.5C 79.1667,36.1667 78.8333,36.8333 78.5,37.5C 77.5713,36.3112 77.238,34.9778 77.5,33.5 Z M 49.5,64.5 C 60.9063,62.1131 63.573,65.2798 57.5,74C 55.8876,74.7203 54.3876,74.5536 53,73.5C 51.8202,70.4788 50.6535,67.4788 49.5,64.5 Z M 45.5,68.5 C 47.4008,70.9351 48.0675,73.6017 47.5,76.5C 45.713,73.8655 45.0464,71.1988 45.5,68.5 Z M 64.5,68.5 C 65.4778,68.811 66.1445,69.4777 66.5,70.5C 65.8772,72.7105 64.8772,74.7105 63.5,76.5C 63.1667,76 62.8333,75.5 62.5,75C 63.6094,72.9534 64.2761,70.7867 64.5,68.5 Z M 52.5,78.5 C 55.0728,78.1485 57.4062,78.6485 59.5,80C 56.1061,83.6185 53.7728,83.1185 52.5,78.5 Z"/></g>
</svg>
