<svg width="25" height="24" viewBox="0 0 25 24" fill="none" xmlns="http://www.w3.org/2000/svg">
<g clip-path="url(#clip0_9267_3035)">
<path d="M21.167 6H18.167C18.167 4.4087 17.5349 2.88258 16.4096 1.75736C15.2844 0.632141 13.7583 0 12.167 0C10.5757 0 9.04957 0.632141 7.92435 1.75736C6.79913 2.88258 6.16699 4.4087 6.16699 6H3.16699C2.37134 6 1.60828 6.31607 1.04567 6.87868C0.483063 7.44129 0.166992 8.20435 0.166992 9L0.166992 19C0.16858 20.3256 0.695874 21.5964 1.63321 22.5338C2.57055 23.4711 3.8414 23.9984 5.16699 24H19.167C20.4926 23.9984 21.7634 23.4711 22.7008 22.5338C23.6381 21.5964 24.1654 20.3256 24.167 19V9C24.167 8.20435 23.8509 7.44129 23.2883 6.87868C22.7257 6.31607 21.9626 6 21.167 6ZM12.167 2C13.2279 2 14.2453 2.42143 14.9954 3.17157C15.7456 3.92172 16.167 4.93913 16.167 6H8.16699C8.16699 4.93913 8.58842 3.92172 9.33856 3.17157C10.0887 2.42143 11.1061 2 12.167 2ZM22.167 19C22.167 19.7956 21.8509 20.5587 21.2883 21.1213C20.7257 21.6839 19.9626 22 19.167 22H5.16699C4.37134 22 3.60828 21.6839 3.04567 21.1213C2.48306 20.5587 2.16699 19.7956 2.16699 19V9C2.16699 8.73478 2.27235 8.48043 2.45989 8.29289C2.64742 8.10536 2.90178 8 3.16699 8H6.16699V10C6.16699 10.2652 6.27235 10.5196 6.45989 10.7071C6.64742 10.8946 6.90178 11 7.16699 11C7.43221 11 7.68656 10.8946 7.8741 10.7071C8.06164 10.5196 8.16699 10.2652 8.16699 10V8H16.167V10C16.167 10.2652 16.2723 10.5196 16.4599 10.7071C16.6474 10.8946 16.9018 11 17.167 11C17.4322 11 17.6866 10.8946 17.8741 10.7071C18.0616 10.5196 18.167 10.2652 18.167 10V8H21.167C21.4322 8 21.6866 8.10536 21.8741 8.29289C22.0616 8.48043 22.167 8.73478 22.167 9V19Z" fill="#898E96"/>
</g>
<defs>
<clipPath id="clip0_9267_3035">
<rect width="24" height="24" fill="white" transform="translate(0.166992)"/>
</clipPath>
</defs>
</svg>
