<svg width="60" height="18" viewBox="0 0 60 18" fill="none" xmlns="http://www.w3.org/2000/svg">
<path d="M9.71283 2.17956C9.50745 1.84433 9.23098 1.55589 8.91501 1.32981C8.59114 1.11152 8.24358 0.940013 7.87232 0.830871C7.46946 0.698341 7.0508 0.612585 6.62425 0.573606C6.1266 0.526831 5.62895 0.503444 5.1313 0.503444H0.82624C0.415482 0.464464 0.0521206 0.760708 0.0126246 1.17389C0.0126246 1.18168 0.0126246 1.18948 0.0126246 1.19728C0.0126246 1.19728 0.0126246 1.22066 0.0126246 1.23625V8.1356C0.612963 9.39853 1.60036 10.4432 2.84053 11.1136V9.72596C2.80104 9.27379 3.1407 8.884 3.59096 8.84502H4.88643C6.64794 8.84502 7.99081 8.47862 8.92291 7.7536C9.85501 7.02859 10.3211 5.94496 10.3369 4.51832C10.3369 4.10513 10.2895 3.69195 10.1868 3.29436C10.0841 2.88898 9.92611 2.52257 9.71283 2.17956ZM7.18509 5.72668C7.035 5.98394 6.81383 6.18663 6.54525 6.31916C6.25298 6.45949 5.93702 6.53745 5.62105 6.56083C5.26559 6.60761 4.91012 6.6232 4.55466 6.6232H3.31449C3.01432 6.6232 2.83264 6.38153 2.83264 6.03851V3.19302C2.81684 2.95914 2.99852 2.75645 3.23549 2.74086C3.25919 2.74086 3.29079 2.74086 3.31449 2.74086H4.55466C4.95752 2.74086 5.33668 2.74865 5.69214 2.77204C6.00811 2.78763 6.32408 2.86559 6.60845 2.99032C6.87702 3.10726 7.0982 3.30216 7.24038 3.55163C7.40627 3.88685 7.47736 4.25326 7.46156 4.61966C7.46946 5.00945 7.37467 5.39145 7.18509 5.72668ZM2.84053 11.519C1.78204 11.137 0.810442 10.5367 0.00472497 9.75714V13.0938C-0.034771 13.351 0.154809 13.5927 0.415483 13.6317C0.423382 13.6317 0.431281 13.6317 0.43918 13.6317H2.38238C2.89583 13.6317 2.84053 13.086 2.84053 13.086V11.519ZM29.5951 4.13632H27.9126C27.5808 4.11293 27.2806 4.33122 27.2095 4.65085L25.2584 9.95204C25.2584 9.95204 23.5364 5.1186 23.41 4.7444C23.3389 4.38579 23.023 4.13632 22.6517 4.12852H21.1035C20.5505 4.12852 20.5505 4.5573 20.6216 4.72101C20.6927 4.88472 22.8097 10.6069 23.6391 12.7975C23.7655 13.0704 23.8603 13.351 23.9077 13.6473C23.8524 13.9357 23.7418 14.2164 23.5838 14.4658C23.5206 14.5672 23.4495 14.6685 23.3705 14.7621C24.9662 14.2943 26.8146 12.587 27.7467 10.7472C28.6867 8.19797 29.919 4.79897 29.9743 4.61966C30.0296 4.3546 30.0295 4.13632 29.5951 4.13632ZM22.1067 15.2766C21.9645 15.2766 21.8223 15.261 21.6722 15.2454C21.4984 15.222 21.1588 15.2454 21.1588 15.5417V16.8202C21.1588 17.3113 21.4036 17.3425 21.5221 17.3737C21.9171 17.4595 22.3278 17.5062 22.7386 17.4984C23.2204 17.514 23.7023 17.4127 24.1368 17.21C24.5396 17.0073 24.8951 16.7344 25.1794 16.3914C25.5112 16.0172 25.7877 15.6118 26.0089 15.1675C26.2458 14.6997 26.4749 14.1774 26.6882 13.6083L26.941 12.9301C26.4512 13.429 24.2473 15.4871 22.1067 15.2766ZM19.571 5.66431C19.4762 5.44602 19.3577 5.25113 19.1998 5.07182C19.0418 4.90811 18.868 4.76778 18.6705 4.64305C18.4651 4.50272 18.2361 4.38579 18.007 4.28444C17.77 4.19089 17.5251 4.12073 17.2803 4.06616C16.9959 4.00379 16.7115 3.96481 16.4192 3.94142C16.1112 3.91024 15.7636 3.89465 15.3765 3.89465C12.8093 3.89465 11.348 4.68983 10.9925 6.28798C10.9372 6.51406 11.0715 6.74793 11.3085 6.8025C11.3322 6.8103 11.3559 6.8103 11.3717 6.8103H12.9515C13.386 6.8103 13.386 6.67777 13.5439 6.31137C13.615 6.10867 13.7414 5.93716 13.9152 5.81243C14.3181 5.55517 14.7999 5.43823 15.2739 5.46941C15.7241 5.42264 16.1665 5.53178 16.5456 5.78125C16.83 6.04631 16.9959 6.40492 17.0117 6.79471C17.0117 7.32483 16.8458 7.66785 16.1823 7.66785C14.6103 7.61328 12.9199 7.78479 11.972 8.3305C11.0162 8.90739 10.4475 9.93645 10.4791 11.0435C10.4712 11.4644 10.558 11.8854 10.7318 12.2674C10.8977 12.6026 11.1426 12.8911 11.4428 13.1172C11.7587 13.3666 12.1221 13.5615 12.5091 13.6707C12.9515 13.7876 13.4018 13.8422 13.8599 13.8422C14.476 13.85 15.0843 13.7642 15.6767 13.5849C16.1981 13.3744 16.6878 13.1016 17.1381 12.7741V13.0704C17.1381 13.3666 17.225 13.6239 17.5725 13.6239H19.4051C19.7764 13.6239 19.8633 13.3666 19.8633 13.0392V7.47295C19.8633 7.12214 19.8396 6.77912 19.7922 6.4361C19.7527 6.17884 19.6737 5.91378 19.571 5.66431ZM17.067 11.1292C17.067 11.1292 16.593 12.1037 14.9105 12.1037C14.5076 12.1193 14.1127 12.0101 13.773 11.7919C13.4728 11.558 13.307 11.1994 13.3386 10.8252C13.2991 10.3184 13.5834 9.84289 14.0495 9.62461C14.7288 9.36735 15.4555 9.25041 16.1823 9.2738C16.6088 9.21143 17.0038 9.49987 17.067 9.92085C17.0749 9.95983 17.0749 9.99881 17.0749 10.0378L17.067 11.1292Z" fill="#333333"/>
<path d="M59.6709 6.94658C60.1104 7.63325 60.1104 8.5072 59.6709 9.19388C59.2314 9.84154 56.8583 12.3151 56.0753 13.111C55.3961 13.7977 54.4772 14.5 53.5663 14.5H34.7092C32.1603 14.5 32.0005 13.6495 32.0005 11.7533V4.0126C32.0005 2.06963 32.5918 1.5 34.3337 1.5H53.6063C54.5092 1.5 55.3162 1.95258 56.2191 2.85774C57.0181 3.63805 59.3513 6.4862 59.6709 6.94658Z" fill="#33CCCC"/>
<path d="M36 3.13497V3.07975C36 2.78528 36 2.5 35.4518 2.5H33.4884C33.0299 2.5 33 2.73006 33 3.08896V5.5C33.7774 4.49693 34.804 3.68712 36 3.13497Z" fill="white"/>
<path d="M45.9974 11.9563V11.8427V6.71371C45.9974 4.57124 45.0629 3.5 43.2019 3.5C42.6827 3.50812 42.1795 3.66231 41.7402 3.94635C41.261 4.25473 40.8297 4.63616 40.4623 5.08251C40.2945 4.6037 39.975 4.18981 39.5597 3.922C39.0805 3.65419 38.5374 3.52435 37.9862 3.54869C37.1795 3.54869 36.3968 3.82462 35.7578 4.32777C35.622 4.46574 33.0022 6.54328 33.0022 8.70198V11.9806C33.0022 12.0861 32.9463 12.4838 33.3936 12.4838H35.039C35.5501 12.4838 35.5022 12.1429 35.5022 12.005V6.69747C35.7738 6.32417 36.3409 5.42336 37.2674 5.42336C37.5709 5.39901 37.8664 5.53697 38.0342 5.78855C38.2179 6.16997 38.2977 6.59197 38.2658 7.00586V11.1447V11.9968C38.2658 12.1023 38.2099 12.5 38.6572 12.5H40.2706C40.7818 12.5 40.7338 12.1592 40.7338 12.0212V11.9076V6.68936C41.0294 6.31605 41.6044 5.41524 42.499 5.41524C42.8025 5.39089 43.098 5.52886 43.2817 5.78043C43.4734 6.15374 43.5533 6.58386 43.5214 6.99775V11.1366V11.9887C43.5214 12.0942 43.4654 12.4919 43.9127 12.4919H45.5581C46.0613 12.427 45.9974 12.0861 45.9974 11.9563Z" fill="white"/>
<path d="M54.7936 10.2276C54.2261 11.6577 52.7443 12.5765 51.1207 12.495C48.6458 12.495 46.9985 10.9093 46.9985 8.53824C46.9985 6.16716 48.7168 4.5 51.034 4.5C53.3512 4.5 54.904 6.01156 54.9985 8.44933C54.9985 8.76054 54.9197 9.03469 54.502 9.03469H49.2527C49.2842 10.3388 49.9542 11.0575 51.1365 11.0575C51.7828 11.0723 52.3739 10.7389 52.6576 10.1906C52.768 10.035 52.9572 9.94607 53.1542 9.95349H54.5099C54.6596 9.94607 54.7857 10.0572 54.7936 10.198C54.7936 10.2202 54.7936 10.235 54.7936 10.2573V10.2276ZM51.0419 5.99674C50.0567 5.99674 49.3946 6.64138 49.2448 7.70096H52.768C52.6813 6.77475 52.1532 5.99674 51.0419 5.99674Z" fill="white"/>
</svg>
