<svg width="38" height="38" viewBox="0 0 38 38" fill="none" xmlns="http://www.w3.org/2000/svg">
<g clip-path="url(#clip0_2297_3147)">
<path d="M29.5336 8.26953L8.26953 29.5336" stroke="#3C486B" stroke-width="4" stroke-linecap="round" stroke-linejoin="round"/>
<path d="M11.2226 15.3573C13.5061 15.3573 15.3573 13.5061 15.3573 11.2226C15.3573 8.93905 13.5061 7.08789 11.2226 7.08789C8.93905 7.08789 7.08789 8.93905 7.08789 11.2226C7.08789 13.5061 8.93905 15.3573 11.2226 15.3573Z" stroke="#3C486B" stroke-width="4" stroke-linecap="round" stroke-linejoin="round"/>
<path d="M26.58 30.7147C28.8635 30.7147 30.7147 28.8635 30.7147 26.58C30.7147 24.2965 28.8635 22.4453 26.58 22.4453C24.2965 22.4453 22.4453 24.2965 22.4453 26.58C22.4453 28.8635 24.2965 30.7147 26.58 30.7147Z" stroke="#3C486B" stroke-width="4" stroke-linecap="round" stroke-linejoin="round"/>
</g>
<defs>
<clipPath id="clip0_2297_3147">
<rect width="37.8028" height="37.8028" fill="white"/>
</clipPath>
</defs>
</svg>
