<svg width="48" height="48" viewBox="0 0 48 48" fill="none" xmlns="http://www.w3.org/2000/svg">
<path d="M46.8818 36.9922C45.6138 36.9622 44.1548 36.8072 42.7468 36.7832C40.8888 36.8162 39.0298 36.8352 37.1708 36.8602C44.9788 33.0112 48.8188 22.4482 43.1678 14.8702C44.9508 14.8742 46.7658 13.7462 47.0748 11.6862C47.5098 8.96323 45.1798 6.97323 42.8428 7.06923C42.9818 4.70823 40.9788 2.38923 38.1588 3.02923C35.4418 3.53523 34.3058 6.90623 35.6018 8.92823C30.1548 6.16323 23.3768 7.10223 17.7998 9.10023C12.1748 11.3042 6.95383 15.3822 4.13883 20.8412C1.77783 25.1082 0.771827 30.4312 4.59183 34.2512C6.17883 35.7462 8.13683 36.6472 10.2758 37.2062C7.06083 37.2682 3.84683 37.3412 0.631827 37.4462C0.108827 37.4032 -0.180173 38.1032 0.218827 38.4432C1.07583 39.1122 4.03483 42.1622 4.82983 42.0832C5.13683 41.6592 3.33483 39.8672 2.07883 38.6422C16.2808 38.9632 30.4858 38.6892 44.6858 38.9412C44.0638 39.6592 43.4428 40.3632 42.7588 41.0602C31.0488 41.1722 19.0518 41.1322 7.38483 41.5612C4.86183 41.6042 3.47683 42.3572 7.18083 42.5402C19.2318 42.7862 31.1338 43.0182 43.1778 43.0132C44.2738 42.7992 44.9818 41.4072 45.7898 40.6872C46.3908 39.8162 47.7128 38.9092 47.8538 38.0112C47.8678 37.4622 47.4328 37.0052 46.8818 36.9922ZM36.7348 6.67923C37.6478 3.11923 42.6948 5.26223 40.2388 8.23823L40.2418 8.24123C40.2248 8.25823 40.2068 8.27023 40.1898 8.28823C39.3018 9.24923 40.7568 10.6052 41.6528 9.65323C44.4198 7.25123 47.1278 12.2962 43.4608 13.2022C42.4958 13.4092 41.4378 12.9062 40.9908 11.9892C40.3118 11.0612 39.0248 12.5372 38.4238 13.0642C37.9328 13.6202 37.6438 14.1472 37.2518 14.6102C37.2228 14.5352 37.2068 14.4562 37.1748 14.3822C36.9178 13.7762 36.2678 13.1212 35.6328 13.0092C35.3698 12.9542 35.1478 12.9302 34.9458 12.9212C35.0268 12.8682 35.1068 12.8182 35.1888 12.7492C36.2058 11.8922 37.3888 10.9762 38.2538 9.90423C38.4258 9.56123 38.2878 9.14423 37.9458 8.97123C37.6368 8.81623 37.3498 8.67423 37.2528 8.56923C36.8038 8.10523 36.5858 7.33423 36.7348 6.67923ZM34.0758 13.0332L34.0768 13.0372C34.0918 13.0682 34.1278 13.0752 34.1528 13.0952C33.9778 13.3052 34.3008 13.6582 35.3248 13.9602C35.8168 14.1322 35.9418 14.4242 36.1378 14.8582C37.3618 18.5342 35.1968 22.1632 33.0758 25.1212C31.1188 27.6402 28.8748 30.0652 25.6308 30.2992C22.6888 30.6782 19.9218 28.2382 19.8148 25.2542C19.1208 19.8672 25.4078 16.2322 29.5518 14.0482C30.5658 13.6892 31.6348 13.4302 32.7018 13.3542C33.3608 13.3032 33.9138 13.2272 34.0758 13.0332ZM22.1628 36.9412C18.0118 36.5862 13.1928 36.4122 9.28883 35.0732C3.08683 32.6782 2.89483 27.1072 5.91783 21.7542C10.9468 12.3342 22.7758 7.11223 33.2048 9.10023C33.9658 9.13423 35.2238 9.94423 36.1398 10.2602C35.6178 10.8502 35.0748 11.4212 34.4968 12.0282C34.2538 12.2922 34.1008 12.5732 34.0628 12.7942C33.8978 12.5842 33.3848 12.3672 32.6798 12.3562C30.3018 12.2952 27.8908 13.1022 25.9458 14.3572C23.0068 16.1162 19.6958 18.2302 18.3118 21.6672C15.8668 28.8892 22.5958 34.9472 29.4148 31.1762C33.9278 28.3312 38.9248 21.2542 37.5698 15.5972C37.7058 15.5222 37.8458 15.4252 37.9878 15.2902C38.7428 14.5022 39.2888 13.8312 40.1258 13.3252C40.4348 13.7802 40.8308 14.1252 41.2748 14.3772C47.6258 23.1452 42.0588 34.8282 32.0938 36.9312C29.1048 36.9632 26.1138 36.9922 23.1238 37.0242C22.7818 36.9922 22.4548 36.9652 22.1628 36.9412Z" fill="black"/>
</svg>
