<svg width="20" height="20" viewBox="0 0 20 20" fill="none" xmlns="http://www.w3.org/2000/svg">
<path d="M16.668 7.91659V5.99992C16.668 5.0665 16.668 4.59979 16.4863 4.24327C16.3265 3.92967 16.0716 3.6747 15.758 3.51491C15.4014 3.33325 14.9347 3.33325 14.0013 3.33325H4.33464C3.40121 3.33325 2.9345 3.33325 2.57798 3.51491C2.26438 3.6747 2.00941 3.92966 1.84962 4.24327C1.66797 4.59979 1.66797 5.0665 1.66797 5.99992V13.9999C1.66797 14.9333 1.66797 15.4 1.84962 15.7566C2.00941 16.0702 2.26438 16.3251 2.57798 16.4849C2.9345 16.6666 3.40121 16.6666 4.33464 16.6666L14.0013 16.6666C14.9347 16.6666 15.4014 16.6666 15.758 16.4849C16.0716 16.3251 16.3265 16.0702 16.4863 15.7566C16.668 15.4 16.668 14.9333 16.668 13.9999V12.0833M12.5013 9.99992C12.5013 9.61271 12.5013 9.4191 12.5333 9.2581C12.6648 8.59695 13.1817 8.08012 13.8428 7.94861C14.0038 7.91659 14.1974 7.91659 14.5846 7.91659H16.2513C16.6385 7.91659 16.8321 7.91659 16.9931 7.94861C17.6543 8.08012 18.1711 8.59695 18.3026 9.2581C18.3346 9.4191 18.3346 9.61271 18.3346 9.99992C18.3346 10.3871 18.3346 10.5807 18.3026 10.7417C18.1711 11.4029 17.6543 11.9197 16.9931 12.0512C16.8321 12.0833 16.6385 12.0833 16.2513 12.0833H14.5846C14.1974 12.0833 14.0038 12.0833 13.8428 12.0512C13.1817 11.9197 12.6648 11.4029 12.5333 10.7417C12.5013 10.5807 12.5013 10.3871 12.5013 9.99992Z" stroke="#898E96" stroke-width="1.6" stroke-linecap="round" stroke-linejoin="round"/>
</svg>
